<svg xmlns="http://www.w3.org/2000/svg" viewBox="0 0 200 40" fill="none">
  <!-- Bird icon (simplified from main logo) -->
  <g transform="translate(0, 2) scale(0.35)">
    <path d="M80 35c-2.5 1-5 1.5-7.5 1.5 2.5-1.5 4.5-4 5.5-7 -2.5 1.5-5 2.5-8 3 -2.5-2.5-6-4-9.5-4 -7 0-12.5 5.5-12.5 12.5 0 1 0 2 0.5 3 -10.5-0.5-20-5.5-26-13 -1.5 2.5-2 5-2 8 0 4.5 2 8.5 5.5 11 -2 0-4-0.5-5.5-1.5v0.5c0 6 4.5 11 10 12 -1 0.5-2.5 0.5-4 0.5 -1 0-2 0-3-0.5 2 5 6.5 8.5 11.5 8.5 -4.5 3.5-10 5.5-15.5 5.5 -1 0-2 0-3-0.5 5.5 3.5 12 5.5 19 5.5 23 0 35.5-19 35.5-35.5 0-0.5 0-1 0-1.5 2.5-2 4.5-4 6-6.5z"
          fill="#000"/>
    <rect x="68" y="55" width="24" height="32" rx="3" fill="#333" opacity="0.8"/>
    <path d="M74 64h16M74 70h16M74 76h10" stroke="#fff" stroke-width="2" stroke-linecap="round"/>
  </g>
  <!-- Text: TweetPrint -->
  <text x="38" y="27" font-family="-apple-system, BlinkMacSystemFont, 'Segoe UI', Roboto, sans-serif"
        font-size="20" font-weight="700" fill="#000">TweetPrint</text>
</svg>
